<svg xmlns="http://www.w3.org/2000/svg" viewBox="0 0 2131.03 541.21"><defs><style>.cls-1{fill:#fff;}</style></defs><g id="Calque_2" data-name="Calque 2"><g id="Calque_1-2" data-name="Calque 1"><path class="cls-1" d="M0,1.2H66v66l84,195V1.2h66.6v540H150v-141l-84-195v336H0Z"/><path class="cls-1" d="M248.4,66c0-39,25.81-66,64.21-66h75.6c36,0,58.8,28.8,58.8,66V372.6c0,37.2-23.4,66-57.6,66h-84c-33.61,0-57-29.4-57-66Zm0,409.21H483.61V1.2h210.6l-30.6,175.2c-4.2,25.2-18.6,45-39,55.8,18,10.2,30.6,29.4,33.6,52.8l36,256.21H627L588.61,258.6c-1.8-10.8-6.6-17.4-15-17.4h-24v234c0,37.8-23.4,66-60,66H248.4ZM381,372.6V66H315V372.6Zm215.4-198L615,67.8h-65.4V174.6Z"/><path class="cls-1" d="M929.4,541.21h-66v-300h-63l-15.6,300H718.2l16.2-300H718.2V174.6h19.2l6-111.6c-13.8-9.6-27-32.4-27-61.8h213Zm-66-366.61V67.8h-54L804,174.6Z"/><path class="cls-1" d="M986.57,2.73h17V121.26h-17Z"/><path class="cls-1" d="M1124,2.73h16.12V121.26h-14.59L1046.31,30v91.29h-16V2.73h13.74L1124,94.79Z"/><path class="cls-1" d="M1155.43,2.56h99v15.1h-41.33v103.6h-17V17.66h-40.64Z"/><path class="cls-1" d="M1270.48,2.73h67.2v15.1h-50.23V54H1336V69.16h-48.54V106h51.85v15.1h-68.82Z"/><path class="cls-1" d="M1357.37,2.73h17V105.82h53.37v15.44h-70.34Z"/><path class="cls-1" d="M1442.56,2.73h17V105.82h53.37v15.44h-70.34Z"/><path class="cls-1" d="M1527.92,2.73h17V121.26h-17Z"/><path class="cls-1" d="M1635.25,62.89h39.8v50.23q-21.9,9.5-43.45,9.5-29.44,0-47-17.18T1567,63.06q0-26.56,18.24-44.21T1630.92,1.2a81.19,81.19,0,0,1,19,2.16,156,156,0,0,1,22.74,7.94V28.61q-21.21-12.3-42.09-12.31-19.42,0-32.75,13.24T1584.51,62q0,20.19,13.32,33t34.28,12.82q10.19,0,24.35-4.67l1.62-.51V78h-22.83Z"/><path class="cls-1" d="M1699.82,2.73H1767v15.1h-50.23V54h48.54V69.16h-48.54V106h51.85v15.1h-68.82Z"/><path class="cls-1" d="M1880.89,2.73H1897V121.26h-14.59L1803.17,30v91.29h-16V2.73H1801l79.93,92.06Z"/><path class="cls-1" d="M2024.54,93.77v18.67q-18.66,10.19-43.1,10.18-19.86,0-33.69-8a58.73,58.73,0,0,1-21.89-22,59.73,59.73,0,0,1-8.06-30.29q0-25.89,18.46-43.53T1981.78,1.2q18.66,0,41.49,9.76V29.2q-20.79-11.88-40.64-11.88-20.37,0-33.82,12.86t-13.44,32.2q0,19.51,13.23,32.07T1982.46,107Q2004,107,2024.54,93.77Z"/><path class="cls-1" d="M2045.42,2.73h67.2v15.1h-50.23V54h48.53V69.16h-48.53V106h51.84v15.1h-68.81Z"/><path class="cls-1" d="M986.57,211.25h17V329.79h-17Z"/><path class="cls-1" d="M1124,211.25h16.12V329.79h-14.59l-79.25-91.29v91.29h-16V211.25h13.74L1124,303.32Z"/><path class="cls-1" d="M1165.69,211.25h63.22v15.11h-46.25v33.09h46.25v15.1h-46.25v55.24h-17Z"/><path class="cls-1" d="M1305.23,209.56q27.46,0,45.74,17.39t18.28,43.61q0,26.22-18.45,43.41t-46.5,17.18q-26.8,0-44.65-17.18T1241.8,270.9q0-26.55,18-43.95T1305.23,209.56Zm.68,16.12q-20.36,0-33.45,12.73t-13.09,32.49q0,19.19,13.14,31.91t32.89,12.72q19.83,0,33.1-13t13.27-32.33q0-18.83-13.27-31.69T1305.91,225.68Z"/><path class="cls-1" d="M1390.63,329.79V211.25h29.7q18,0,28.55,8.91t10.56,24.1a29.65,29.65,0,0,1-20,29.19,52.34,52.34,0,0,1,11.11,10.18q5.43,6.45,15.28,22.49,6.2,10.1,9.92,15.18l6.28,8.49h-20.19l-5.17-7.81q-.26-.42-1-1.44l-3.3-4.67-5.26-8.66L1441.4,298a94,94,0,0,0-9.63-11.62,36.68,36.68,0,0,0-7.9-6.22q-3.52-1.91-11.85-1.91h-4.42v51.59Zm22.06-104.11h-5.09V263.1h6.45q12.9,0,17.69-2.21a16.66,16.66,0,0,0,7.47-6.66,19.34,19.34,0,0,0,2.67-10.14,18.14,18.14,0,0,0-3-10.14,15.89,15.89,0,0,0-8.36-6.4Q1425.17,225.68,1412.69,225.68Z"/><path class="cls-1" d="M1589.35,211.25h15.86V329.79h-17V237.56l-36.44,45.82h-3.14l-36.87-45.82v92.23h-17V211.25h16.06l39.39,48.69Z"/><path class="cls-1" d="M1668.6,210.58h11.93l53.15,119.21h-17.37l-15.8-35.13h-50.57l-14.81,35.13h-17.44Zm24.93,69-19.12-42.94-17.74,42.94Z"/><path class="cls-1" d="M1719.17,211.08h99v15.11h-41.32v103.6h-17.06V226.19h-40.64Z"/><path class="cls-1" d="M1834.39,211.25h17V329.79h-17Z"/><path class="cls-1" d="M1935.83,209.56q27.48,0,45.75,17.39t18.27,43.61q0,26.22-18.44,43.41t-46.51,17.18q-26.79,0-44.64-17.18t-17.85-43.07q0-26.55,18-43.95T1935.83,209.56Zm.68,16.12q-20.34,0-33.44,12.73T1890,270.9q0,19.19,13.14,31.91T1936,315.53q19.83,0,33.1-13t13.27-32.33q0-18.83-13.27-31.69T1936.51,225.68Z"/><path class="cls-1" d="M2114.91,211.25H2131V329.79h-14.6l-79.24-91.29v91.29h-16V211.25H2035l79.93,92.07Z"/><path class="cls-1" d="M986.57,419.78h17V538.32h-17Z"/><path class="cls-1" d="M1124,419.78h16.12V538.32h-14.59L1046.31,447v91.29h-16V419.78h13.74L1124,511.85Z"/><path class="cls-1" d="M1165.69,538.15V419.78h40q24.18,0,38.26,7.26a54.67,54.67,0,0,1,22.4,21.34,59.28,59.28,0,0,1,8.32,30.71,58,58,0,0,1-4.58,22.74,58.64,58.64,0,0,1-33.18,31.9,59.88,59.88,0,0,1-12.3,3.53q-5.61.88-21.38.89Zm38.18-103.27h-21.21V523h21.72q12.73,0,19.77-1.74a46.18,46.18,0,0,0,11.76-4.41,40.35,40.35,0,0,0,8.61-6.57q12.56-12.74,12.56-32.16,0-19.1-12.9-31.14a41.06,41.06,0,0,0-10.9-7.38,45.33,45.33,0,0,0-11.67-3.82A118.81,118.81,0,0,0,1203.87,434.88Z"/><path class="cls-1" d="M1295.85,419.78h67.2v15.1h-50.23V471h48.54v15.19h-48.54V523h51.85v15.11h-68.82Z"/><path class="cls-1" d="M1468.55,419.78h20.51L1441.63,477l50.73,61.37h-20.49l-40.38-49.14-40.75,49.14H1370L1421,477l-47.36-57.17h20.71l37.2,45.27Z"/><path class="cls-1" d="M1543.62,419.1h11.92l53.15,119.22h-17.36l-15.8-35.13H1525l-14.81,35.13H1492.7Zm24.93,69-19.12-42.94-17.74,42.94Z"/><path class="cls-1" d="M1594.18,419.61h99v15.1h-41.32V538.32h-17.05V434.71h-40.65Z"/><path class="cls-1" d="M1709.41,419.78h17V538.32h-17Z"/><path class="cls-1" d="M1810.85,418.08q27.47,0,45.74,17.4t18.28,43.61q0,26.22-18.45,43.4t-46.5,17.18q-26.81,0-44.65-17.18t-17.85-43.06q0-26.55,18-43.95T1810.85,418.08Zm.68,16.13q-20.35,0-33.45,12.72T1765,479.43q0,19.17,13.14,31.9T1811,524.06q19.83,0,33.1-13t13.27-32.33q0-18.84-13.27-31.69T1811.53,434.21Z"/><path class="cls-1" d="M1989.92,419.78h16.13V538.32h-14.6L1912.2,447v91.29h-16V419.78H1910l79.92,92.07Z"/></g></g></svg>